<mxfile host="app.diagrams.net" agent="Mozilla/5.0 (Windows NT 10.0; Win64; x64) AppleWebKit/537.36 (KHTML, like Gecko) Chrome/140.0.0.0 Safari/537.36" version="28.2.3">
  <diagram name="Página-1" id="EewztxIhcmtVePZvK8i4">
    <mxGraphModel grid="1" page="1" gridSize="10" guides="1" tooltips="1" connect="1" arrows="1" fold="1" pageScale="1" pageWidth="827" pageHeight="1169" math="0" shadow="0">
      <root>
        <mxCell id="0" />
        <mxCell id="1" parent="0" />
        <mxCell id="Dz-Kh3eGNdh8o4RU7KDZ-23" style="edgeStyle=orthogonalEdgeStyle;rounded=0;orthogonalLoop=1;jettySize=auto;html=1;entryX=0.5;entryY=1;entryDx=0;entryDy=0;" edge="1" parent="1" source="Dz-Kh3eGNdh8o4RU7KDZ-1" target="Dz-Kh3eGNdh8o4RU7KDZ-17">
          <mxGeometry relative="1" as="geometry">
            <Array as="points">
              <mxPoint x="700" y="100" />
              <mxPoint x="460" y="100" />
            </Array>
          </mxGeometry>
        </mxCell>
        <mxCell id="Dz-Kh3eGNdh8o4RU7KDZ-24" style="edgeStyle=orthogonalEdgeStyle;rounded=0;orthogonalLoop=1;jettySize=auto;html=1;entryX=0.5;entryY=1;entryDx=0;entryDy=0;" edge="1" parent="1" source="Dz-Kh3eGNdh8o4RU7KDZ-1" target="Dz-Kh3eGNdh8o4RU7KDZ-18">
          <mxGeometry relative="1" as="geometry">
            <Array as="points">
              <mxPoint x="700" y="100" />
              <mxPoint x="580" y="100" />
            </Array>
          </mxGeometry>
        </mxCell>
        <mxCell id="Dz-Kh3eGNdh8o4RU7KDZ-25" style="edgeStyle=orthogonalEdgeStyle;rounded=0;orthogonalLoop=1;jettySize=auto;html=1;entryX=0.5;entryY=1;entryDx=0;entryDy=0;" edge="1" parent="1" source="Dz-Kh3eGNdh8o4RU7KDZ-1" target="Dz-Kh3eGNdh8o4RU7KDZ-19">
          <mxGeometry relative="1" as="geometry" />
        </mxCell>
        <mxCell id="Dz-Kh3eGNdh8o4RU7KDZ-26" style="edgeStyle=orthogonalEdgeStyle;rounded=0;orthogonalLoop=1;jettySize=auto;html=1;entryX=0.5;entryY=1;entryDx=0;entryDy=0;" edge="1" parent="1" source="Dz-Kh3eGNdh8o4RU7KDZ-1" target="Dz-Kh3eGNdh8o4RU7KDZ-20">
          <mxGeometry relative="1" as="geometry">
            <Array as="points">
              <mxPoint x="700" y="100" />
              <mxPoint x="820" y="100" />
            </Array>
          </mxGeometry>
        </mxCell>
        <mxCell id="Dz-Kh3eGNdh8o4RU7KDZ-27" style="edgeStyle=orthogonalEdgeStyle;rounded=0;orthogonalLoop=1;jettySize=auto;html=1;entryX=0.5;entryY=1;entryDx=0;entryDy=0;" edge="1" parent="1" source="Dz-Kh3eGNdh8o4RU7KDZ-1" target="Dz-Kh3eGNdh8o4RU7KDZ-22">
          <mxGeometry relative="1" as="geometry">
            <Array as="points">
              <mxPoint x="700" y="100" />
              <mxPoint x="940" y="100" />
            </Array>
          </mxGeometry>
        </mxCell>
        <mxCell id="Dz-Kh3eGNdh8o4RU7KDZ-199" style="edgeStyle=orthogonalEdgeStyle;rounded=0;orthogonalLoop=1;jettySize=auto;html=1;exitX=1;exitY=0.5;exitDx=0;exitDy=0;" edge="1" parent="1" source="Dz-Kh3eGNdh8o4RU7KDZ-1" target="Dz-Kh3eGNdh8o4RU7KDZ-43">
          <mxGeometry relative="1" as="geometry">
            <Array as="points">
              <mxPoint x="780" y="140" />
              <mxPoint x="780" y="480" />
              <mxPoint x="560" y="480" />
            </Array>
          </mxGeometry>
        </mxCell>
        <mxCell id="Dz-Kh3eGNdh8o4RU7KDZ-200" value="&lt;span style=&quot;font-size: 15px;&quot;&gt;&amp;nbsp;1&amp;nbsp;&lt;/span&gt;" style="edgeLabel;html=1;align=center;verticalAlign=middle;resizable=0;points=[];" connectable="0" vertex="1" parent="Dz-Kh3eGNdh8o4RU7KDZ-199">
          <mxGeometry x="-0.9287" relative="1" as="geometry">
            <mxPoint as="offset" />
          </mxGeometry>
        </mxCell>
        <mxCell id="Dz-Kh3eGNdh8o4RU7KDZ-1" value="Usuário" style="rounded=0;whiteSpace=wrap;html=1;" vertex="1" parent="1">
          <mxGeometry x="660" y="120" width="80" height="40" as="geometry" />
        </mxCell>
        <mxCell id="Dz-Kh3eGNdh8o4RU7KDZ-12" value="" style="edgeStyle=orthogonalEdgeStyle;rounded=0;orthogonalLoop=1;jettySize=auto;html=1;entryX=0.5;entryY=1;entryDx=0;entryDy=0;" edge="1" parent="1" source="Dz-Kh3eGNdh8o4RU7KDZ-2" target="Dz-Kh3eGNdh8o4RU7KDZ-11">
          <mxGeometry relative="1" as="geometry">
            <Array as="points">
              <mxPoint x="120" y="100" />
              <mxPoint x="-60" y="100" />
            </Array>
          </mxGeometry>
        </mxCell>
        <mxCell id="Dz-Kh3eGNdh8o4RU7KDZ-14" value="" style="edgeStyle=orthogonalEdgeStyle;rounded=0;orthogonalLoop=1;jettySize=auto;html=1;" edge="1" parent="1" source="Dz-Kh3eGNdh8o4RU7KDZ-2" target="Dz-Kh3eGNdh8o4RU7KDZ-13">
          <mxGeometry relative="1" as="geometry" />
        </mxCell>
        <mxCell id="Dz-Kh3eGNdh8o4RU7KDZ-186" value="&amp;nbsp;&lt;font style=&quot;font-size: 15px;&quot;&gt;1&amp;nbsp;&lt;/font&gt;" style="edgeLabel;html=1;align=center;verticalAlign=middle;resizable=0;points=[];" connectable="0" vertex="1" parent="Dz-Kh3eGNdh8o4RU7KDZ-14">
          <mxGeometry x="-0.7976" y="1" relative="1" as="geometry">
            <mxPoint as="offset" />
          </mxGeometry>
        </mxCell>
        <mxCell id="Dz-Kh3eGNdh8o4RU7KDZ-56" style="edgeStyle=orthogonalEdgeStyle;rounded=0;orthogonalLoop=1;jettySize=auto;html=1;entryX=0.5;entryY=1;entryDx=0;entryDy=0;" edge="1" parent="1" source="Dz-Kh3eGNdh8o4RU7KDZ-2" target="Dz-Kh3eGNdh8o4RU7KDZ-55">
          <mxGeometry relative="1" as="geometry" />
        </mxCell>
        <mxCell id="Dz-Kh3eGNdh8o4RU7KDZ-57" style="edgeStyle=orthogonalEdgeStyle;rounded=0;orthogonalLoop=1;jettySize=auto;html=1;entryX=0.5;entryY=1;entryDx=0;entryDy=0;" edge="1" parent="1" source="Dz-Kh3eGNdh8o4RU7KDZ-2" target="Dz-Kh3eGNdh8o4RU7KDZ-54">
          <mxGeometry relative="1" as="geometry" />
        </mxCell>
        <mxCell id="Dz-Kh3eGNdh8o4RU7KDZ-58" style="edgeStyle=orthogonalEdgeStyle;rounded=0;orthogonalLoop=1;jettySize=auto;html=1;entryX=0.5;entryY=1;entryDx=0;entryDy=0;" edge="1" parent="1" source="Dz-Kh3eGNdh8o4RU7KDZ-2" target="Dz-Kh3eGNdh8o4RU7KDZ-53">
          <mxGeometry relative="1" as="geometry">
            <Array as="points">
              <mxPoint x="120" y="100" />
              <mxPoint x="300" y="100" />
            </Array>
          </mxGeometry>
        </mxCell>
        <mxCell id="Dz-Kh3eGNdh8o4RU7KDZ-2" value="Postagem" style="rounded=0;whiteSpace=wrap;html=1;" vertex="1" parent="1">
          <mxGeometry x="80" y="120" width="80" height="40" as="geometry" />
        </mxCell>
        <mxCell id="Dz-Kh3eGNdh8o4RU7KDZ-51" style="edgeStyle=orthogonalEdgeStyle;rounded=0;orthogonalLoop=1;jettySize=auto;html=1;exitX=1;exitY=0.5;exitDx=0;exitDy=0;" edge="1" parent="1" source="Dz-Kh3eGNdh8o4RU7KDZ-3" target="Dz-Kh3eGNdh8o4RU7KDZ-50">
          <mxGeometry relative="1" as="geometry" />
        </mxCell>
        <mxCell id="Dz-Kh3eGNdh8o4RU7KDZ-190" value="&lt;span style=&quot;font-size: 15px;&quot;&gt;&amp;nbsp;1&amp;nbsp;&lt;/span&gt;" style="edgeLabel;html=1;align=center;verticalAlign=middle;resizable=0;points=[];" connectable="0" vertex="1" parent="Dz-Kh3eGNdh8o4RU7KDZ-51">
          <mxGeometry x="-0.719" relative="1" as="geometry">
            <mxPoint x="-1" as="offset" />
          </mxGeometry>
        </mxCell>
        <mxCell id="Dz-Kh3eGNdh8o4RU7KDZ-3" value="Curtida" style="rounded=0;whiteSpace=wrap;html=1;" vertex="1" parent="1">
          <mxGeometry x="80" y="320" width="80" height="40" as="geometry" />
        </mxCell>
        <mxCell id="GRPe2XX9fj8zF9kyBkjl-1" style="edgeStyle=orthogonalEdgeStyle;rounded=0;orthogonalLoop=1;jettySize=auto;html=1;exitX=0;exitY=0.5;exitDx=0;exitDy=0;entryX=1;entryY=0.5;entryDx=0;entryDy=0;" edge="1" parent="1" source="Dz-Kh3eGNdh8o4RU7KDZ-4" target="Dz-Kh3eGNdh8o4RU7KDZ-50">
          <mxGeometry relative="1" as="geometry" />
        </mxCell>
        <mxCell id="Dz-Kh3eGNdh8o4RU7KDZ-192" value="&lt;span style=&quot;font-size: 15px;&quot;&gt;&amp;nbsp;1&amp;nbsp;&lt;/span&gt;" style="edgeLabel;html=1;align=center;verticalAlign=middle;resizable=0;points=[];" connectable="0" vertex="1" parent="GRPe2XX9fj8zF9kyBkjl-1">
          <mxGeometry x="-0.7452" y="1" relative="1" as="geometry">
            <mxPoint x="-1" as="offset" />
          </mxGeometry>
        </mxCell>
        <mxCell id="Dz-Kh3eGNdh8o4RU7KDZ-4" value="Comentário" style="rounded=0;whiteSpace=wrap;html=1;" vertex="1" parent="1">
          <mxGeometry x="660" y="320" width="80" height="40" as="geometry" />
        </mxCell>
        <mxCell id="Dz-Kh3eGNdh8o4RU7KDZ-31" style="edgeStyle=orthogonalEdgeStyle;rounded=0;orthogonalLoop=1;jettySize=auto;html=1;" edge="1" parent="1" source="Dz-Kh3eGNdh8o4RU7KDZ-5" target="Dz-Kh3eGNdh8o4RU7KDZ-30">
          <mxGeometry relative="1" as="geometry" />
        </mxCell>
        <mxCell id="Dz-Kh3eGNdh8o4RU7KDZ-194" value="&lt;span style=&quot;font-size: 15px;&quot;&gt;&amp;nbsp;1&amp;nbsp;&lt;/span&gt;" style="edgeLabel;html=1;align=center;verticalAlign=middle;resizable=0;points=[];" connectable="0" vertex="1" parent="Dz-Kh3eGNdh8o4RU7KDZ-31">
          <mxGeometry x="-0.8314" y="-2" relative="1" as="geometry">
            <mxPoint x="-1" as="offset" />
          </mxGeometry>
        </mxCell>
        <mxCell id="Dz-Kh3eGNdh8o4RU7KDZ-35" value="" style="edgeStyle=orthogonalEdgeStyle;rounded=0;orthogonalLoop=1;jettySize=auto;html=1;" edge="1" parent="1" source="Dz-Kh3eGNdh8o4RU7KDZ-5" target="Dz-Kh3eGNdh8o4RU7KDZ-34">
          <mxGeometry relative="1" as="geometry">
            <Array as="points">
              <mxPoint x="120" y="500" />
              <mxPoint x="300" y="500" />
            </Array>
          </mxGeometry>
        </mxCell>
        <mxCell id="Dz-Kh3eGNdh8o4RU7KDZ-37" value="" style="edgeStyle=orthogonalEdgeStyle;rounded=0;orthogonalLoop=1;jettySize=auto;html=1;" edge="1" parent="1" source="Dz-Kh3eGNdh8o4RU7KDZ-5" target="Dz-Kh3eGNdh8o4RU7KDZ-36">
          <mxGeometry relative="1" as="geometry" />
        </mxCell>
        <mxCell id="Dz-Kh3eGNdh8o4RU7KDZ-40" style="edgeStyle=orthogonalEdgeStyle;rounded=0;orthogonalLoop=1;jettySize=auto;html=1;entryX=0.5;entryY=1;entryDx=0;entryDy=0;" edge="1" parent="1" source="Dz-Kh3eGNdh8o4RU7KDZ-5" target="Dz-Kh3eGNdh8o4RU7KDZ-38">
          <mxGeometry relative="1" as="geometry" />
        </mxCell>
        <mxCell id="Dz-Kh3eGNdh8o4RU7KDZ-41" style="edgeStyle=orthogonalEdgeStyle;rounded=0;orthogonalLoop=1;jettySize=auto;html=1;entryX=0.5;entryY=1;entryDx=0;entryDy=0;" edge="1" parent="1" source="Dz-Kh3eGNdh8o4RU7KDZ-5" target="Dz-Kh3eGNdh8o4RU7KDZ-39">
          <mxGeometry relative="1" as="geometry">
            <Array as="points">
              <mxPoint x="120" y="500" />
              <mxPoint x="-60" y="500" />
            </Array>
          </mxGeometry>
        </mxCell>
        <mxCell id="Dz-Kh3eGNdh8o4RU7KDZ-5" value="Story" style="rounded=0;whiteSpace=wrap;html=1;" vertex="1" parent="1">
          <mxGeometry x="80" y="520" width="80" height="40" as="geometry" />
        </mxCell>
        <mxCell id="Dz-Kh3eGNdh8o4RU7KDZ-210" style="edgeStyle=orthogonalEdgeStyle;rounded=0;orthogonalLoop=1;jettySize=auto;html=1;entryX=0.5;entryY=0;entryDx=0;entryDy=0;" edge="1" parent="1" source="Dz-Kh3eGNdh8o4RU7KDZ-6" target="Dz-Kh3eGNdh8o4RU7KDZ-204">
          <mxGeometry relative="1" as="geometry">
            <Array as="points">
              <mxPoint x="700" y="660" />
              <mxPoint x="570" y="660" />
            </Array>
          </mxGeometry>
        </mxCell>
        <mxCell id="Dz-Kh3eGNdh8o4RU7KDZ-211" value="&lt;font style=&quot;font-size: 15px;&quot;&gt;&amp;nbsp;1&amp;nbsp;&lt;/font&gt;" style="edgeLabel;html=1;align=center;verticalAlign=middle;resizable=0;points=[];" connectable="0" vertex="1" parent="Dz-Kh3eGNdh8o4RU7KDZ-210">
          <mxGeometry x="-0.5134" relative="1" as="geometry">
            <mxPoint as="offset" />
          </mxGeometry>
        </mxCell>
        <mxCell id="Dz-Kh3eGNdh8o4RU7KDZ-6" value="Seguindo" style="rounded=0;whiteSpace=wrap;html=1;" vertex="1" parent="1">
          <mxGeometry x="660" y="600" width="80" height="40" as="geometry" />
        </mxCell>
        <mxCell id="Dz-Kh3eGNdh8o4RU7KDZ-205" style="edgeStyle=orthogonalEdgeStyle;rounded=0;orthogonalLoop=1;jettySize=auto;html=1;entryX=0.5;entryY=0;entryDx=0;entryDy=0;" edge="1" parent="1" source="Dz-Kh3eGNdh8o4RU7KDZ-7" target="Dz-Kh3eGNdh8o4RU7KDZ-204">
          <mxGeometry relative="1" as="geometry">
            <Array as="points">
              <mxPoint x="414" y="660" />
              <mxPoint x="570" y="660" />
            </Array>
          </mxGeometry>
        </mxCell>
        <mxCell id="Dz-Kh3eGNdh8o4RU7KDZ-208" value="&lt;span style=&quot;font-size: 15px;&quot;&gt;&amp;nbsp;1&amp;nbsp;&lt;/span&gt;" style="edgeLabel;html=1;align=center;verticalAlign=middle;resizable=0;points=[];" connectable="0" vertex="1" parent="Dz-Kh3eGNdh8o4RU7KDZ-205">
          <mxGeometry x="-0.6475" relative="1" as="geometry">
            <mxPoint as="offset" />
          </mxGeometry>
        </mxCell>
        <mxCell id="Dz-Kh3eGNdh8o4RU7KDZ-7" value="Seguidor" style="rounded=0;whiteSpace=wrap;html=1;" vertex="1" parent="1">
          <mxGeometry x="374" y="600" width="80" height="40" as="geometry" />
        </mxCell>
        <mxCell id="Dz-Kh3eGNdh8o4RU7KDZ-11" value="Descrição" style="ellipse;whiteSpace=wrap;html=1;" vertex="1" parent="1">
          <mxGeometry x="-100" y="40" width="80" height="40" as="geometry" />
        </mxCell>
        <mxCell id="Dz-Kh3eGNdh8o4RU7KDZ-15" style="edgeStyle=orthogonalEdgeStyle;rounded=0;orthogonalLoop=1;jettySize=auto;html=1;exitX=1;exitY=0.5;exitDx=0;exitDy=0;" edge="1" parent="1" source="Dz-Kh3eGNdh8o4RU7KDZ-13" target="Dz-Kh3eGNdh8o4RU7KDZ-1">
          <mxGeometry relative="1" as="geometry" />
        </mxCell>
        <mxCell id="Dz-Kh3eGNdh8o4RU7KDZ-187" value="&lt;font style=&quot;font-size: 15px;&quot;&gt;&amp;nbsp;1&amp;nbsp;&lt;/font&gt;" style="edgeLabel;html=1;align=center;verticalAlign=middle;resizable=0;points=[];" connectable="0" vertex="1" parent="Dz-Kh3eGNdh8o4RU7KDZ-15">
          <mxGeometry x="0.7024" y="-2" relative="1" as="geometry">
            <mxPoint as="offset" />
          </mxGeometry>
        </mxCell>
        <mxCell id="Dz-Kh3eGNdh8o4RU7KDZ-28" style="edgeStyle=orthogonalEdgeStyle;rounded=0;orthogonalLoop=1;jettySize=auto;html=1;entryX=0.5;entryY=0;entryDx=0;entryDy=0;" edge="1" parent="1" source="Dz-Kh3eGNdh8o4RU7KDZ-13" target="Dz-Kh3eGNdh8o4RU7KDZ-3">
          <mxGeometry relative="1" as="geometry">
            <Array as="points">
              <mxPoint x="410" y="240" />
              <mxPoint x="120" y="240" />
            </Array>
          </mxGeometry>
        </mxCell>
        <mxCell id="Dz-Kh3eGNdh8o4RU7KDZ-188" value="&lt;font style=&quot;font-size: 15px;&quot;&gt;N&lt;/font&gt;" style="edgeLabel;html=1;align=center;verticalAlign=middle;resizable=0;points=[];" connectable="0" vertex="1" parent="Dz-Kh3eGNdh8o4RU7KDZ-28">
          <mxGeometry x="0.8722" y="1" relative="1" as="geometry">
            <mxPoint as="offset" />
          </mxGeometry>
        </mxCell>
        <mxCell id="Dz-Kh3eGNdh8o4RU7KDZ-29" style="edgeStyle=orthogonalEdgeStyle;rounded=0;orthogonalLoop=1;jettySize=auto;html=1;entryX=0.5;entryY=0;entryDx=0;entryDy=0;" edge="1" parent="1" source="Dz-Kh3eGNdh8o4RU7KDZ-13" target="Dz-Kh3eGNdh8o4RU7KDZ-4">
          <mxGeometry relative="1" as="geometry">
            <Array as="points">
              <mxPoint x="410" y="240" />
              <mxPoint x="700" y="240" />
            </Array>
          </mxGeometry>
        </mxCell>
        <mxCell id="Dz-Kh3eGNdh8o4RU7KDZ-189" value="&lt;span style=&quot;font-size: 15px;&quot;&gt;N&lt;/span&gt;" style="edgeLabel;html=1;align=center;verticalAlign=middle;resizable=0;points=[];" connectable="0" vertex="1" parent="Dz-Kh3eGNdh8o4RU7KDZ-29">
          <mxGeometry x="0.8644" y="2" relative="1" as="geometry">
            <mxPoint y="-1" as="offset" />
          </mxGeometry>
        </mxCell>
        <mxCell id="Dz-Kh3eGNdh8o4RU7KDZ-13" value="Tem" style="rhombus;whiteSpace=wrap;html=1;rounded=0;" vertex="1" parent="1">
          <mxGeometry x="370" y="120" width="80" height="40" as="geometry" />
        </mxCell>
        <mxCell id="Dz-Kh3eGNdh8o4RU7KDZ-17" value="&lt;font style=&quot;font-size: 11px;&quot;&gt;NomeCompleto&lt;/font&gt;" style="ellipse;whiteSpace=wrap;html=1;" vertex="1" parent="1">
          <mxGeometry x="420" y="40" width="80" height="40" as="geometry" />
        </mxCell>
        <mxCell id="Dz-Kh3eGNdh8o4RU7KDZ-18" value="&lt;font style=&quot;font-size: 11px;&quot;&gt;NomeUsuario&lt;/font&gt;" style="ellipse;whiteSpace=wrap;html=1;" vertex="1" parent="1">
          <mxGeometry x="540" y="40" width="80" height="40" as="geometry" />
        </mxCell>
        <mxCell id="Dz-Kh3eGNdh8o4RU7KDZ-19" value="&lt;font style=&quot;font-size: 11px;&quot;&gt;Email&lt;/font&gt;" style="ellipse;whiteSpace=wrap;html=1;" vertex="1" parent="1">
          <mxGeometry x="660" y="40" width="80" height="40" as="geometry" />
        </mxCell>
        <mxCell id="Dz-Kh3eGNdh8o4RU7KDZ-20" value="&lt;font style=&quot;font-size: 11px;&quot;&gt;Senha&lt;/font&gt;" style="ellipse;whiteSpace=wrap;html=1;" vertex="1" parent="1">
          <mxGeometry x="780" y="40" width="80" height="40" as="geometry" />
        </mxCell>
        <mxCell id="Dz-Kh3eGNdh8o4RU7KDZ-22" value="&lt;font style=&quot;font-size: 11px;&quot;&gt;FotoPerfil&lt;/font&gt;" style="ellipse;whiteSpace=wrap;html=1;" vertex="1" parent="1">
          <mxGeometry x="900" y="40" width="80" height="40" as="geometry" />
        </mxCell>
        <mxCell id="Dz-Kh3eGNdh8o4RU7KDZ-32" style="edgeStyle=orthogonalEdgeStyle;rounded=0;orthogonalLoop=1;jettySize=auto;html=1;entryX=0.5;entryY=1;entryDx=0;entryDy=0;" edge="1" parent="1" source="Dz-Kh3eGNdh8o4RU7KDZ-30" target="Dz-Kh3eGNdh8o4RU7KDZ-3">
          <mxGeometry relative="1" as="geometry" />
        </mxCell>
        <mxCell id="Dz-Kh3eGNdh8o4RU7KDZ-195" value="&lt;font style=&quot;font-size: 15px;&quot;&gt;N&lt;/font&gt;" style="edgeLabel;html=1;align=center;verticalAlign=middle;resizable=0;points=[];" connectable="0" vertex="1" parent="Dz-Kh3eGNdh8o4RU7KDZ-32">
          <mxGeometry x="0.75" y="-1" relative="1" as="geometry">
            <mxPoint as="offset" />
          </mxGeometry>
        </mxCell>
        <mxCell id="Dz-Kh3eGNdh8o4RU7KDZ-33" style="edgeStyle=orthogonalEdgeStyle;rounded=0;orthogonalLoop=1;jettySize=auto;html=1;entryX=0.5;entryY=1;entryDx=0;entryDy=0;" edge="1" parent="1" source="Dz-Kh3eGNdh8o4RU7KDZ-30" target="Dz-Kh3eGNdh8o4RU7KDZ-4">
          <mxGeometry relative="1" as="geometry">
            <Array as="points">
              <mxPoint x="410" y="380" />
              <mxPoint x="700" y="380" />
            </Array>
          </mxGeometry>
        </mxCell>
        <mxCell id="Dz-Kh3eGNdh8o4RU7KDZ-196" value="&lt;font style=&quot;font-size: 15px;&quot;&gt;&amp;nbsp;N&amp;nbsp;&lt;/font&gt;" style="edgeLabel;html=1;align=center;verticalAlign=middle;resizable=0;points=[];" connectable="0" vertex="1" parent="Dz-Kh3eGNdh8o4RU7KDZ-33">
          <mxGeometry x="0.6106" relative="1" as="geometry">
            <mxPoint x="-1" as="offset" />
          </mxGeometry>
        </mxCell>
        <mxCell id="Dz-Kh3eGNdh8o4RU7KDZ-42" style="edgeStyle=orthogonalEdgeStyle;rounded=0;orthogonalLoop=1;jettySize=auto;html=1;entryX=1;entryY=1;entryDx=0;entryDy=0;" edge="1" parent="1" source="Dz-Kh3eGNdh8o4RU7KDZ-30" target="Dz-Kh3eGNdh8o4RU7KDZ-1">
          <mxGeometry relative="1" as="geometry">
            <mxPoint x="740" y="140" as="targetPoint" />
            <Array as="points">
              <mxPoint x="760" y="420" />
              <mxPoint x="760" y="160" />
            </Array>
          </mxGeometry>
        </mxCell>
        <mxCell id="Dz-Kh3eGNdh8o4RU7KDZ-198" value="&lt;font style=&quot;font-size: 15px;&quot;&gt;1&lt;/font&gt;" style="edgeLabel;html=1;align=center;verticalAlign=middle;resizable=0;points=[];" connectable="0" vertex="1" parent="Dz-Kh3eGNdh8o4RU7KDZ-42">
          <mxGeometry x="0.827" y="3" relative="1" as="geometry">
            <mxPoint as="offset" />
          </mxGeometry>
        </mxCell>
        <mxCell id="Dz-Kh3eGNdh8o4RU7KDZ-30" value="Tem" style="rhombus;whiteSpace=wrap;html=1;rounded=0;" vertex="1" parent="1">
          <mxGeometry x="370" y="400" width="80" height="40" as="geometry" />
        </mxCell>
        <mxCell id="Dz-Kh3eGNdh8o4RU7KDZ-34" value="&lt;font style=&quot;font-size: 11px;&quot;&gt;TempoPostado&lt;/font&gt;" style="ellipse;whiteSpace=wrap;html=1;" vertex="1" parent="1">
          <mxGeometry x="260" y="440" width="80" height="40" as="geometry" />
        </mxCell>
        <mxCell id="Dz-Kh3eGNdh8o4RU7KDZ-36" value="&lt;font style=&quot;font-size: 11px;&quot;&gt;Imagem&lt;/font&gt;" style="ellipse;whiteSpace=wrap;html=1;" vertex="1" parent="1">
          <mxGeometry x="140" y="440" width="80" height="40" as="geometry" />
        </mxCell>
        <mxCell id="Dz-Kh3eGNdh8o4RU7KDZ-38" value="&lt;font style=&quot;font-size: 11px;&quot;&gt;Música&lt;/font&gt;" style="ellipse;whiteSpace=wrap;html=1;" vertex="1" parent="1">
          <mxGeometry x="10" y="440" width="80" height="40" as="geometry" />
        </mxCell>
        <mxCell id="Dz-Kh3eGNdh8o4RU7KDZ-39" value="&lt;span style=&quot;font-size: 11px;&quot;&gt;Legenda&lt;/span&gt;" style="ellipse;whiteSpace=wrap;html=1;" vertex="1" parent="1">
          <mxGeometry x="-100" y="440" width="80" height="40" as="geometry" />
        </mxCell>
        <mxCell id="Dz-Kh3eGNdh8o4RU7KDZ-201" style="edgeStyle=orthogonalEdgeStyle;rounded=0;orthogonalLoop=1;jettySize=auto;html=1;entryX=0.5;entryY=0;entryDx=0;entryDy=0;" edge="1" parent="1" source="Dz-Kh3eGNdh8o4RU7KDZ-43" target="Dz-Kh3eGNdh8o4RU7KDZ-7">
          <mxGeometry relative="1" as="geometry">
            <Array as="points">
              <mxPoint x="560" y="580" />
              <mxPoint x="414" y="580" />
            </Array>
          </mxGeometry>
        </mxCell>
        <mxCell id="Dz-Kh3eGNdh8o4RU7KDZ-202" style="edgeStyle=orthogonalEdgeStyle;rounded=0;orthogonalLoop=1;jettySize=auto;html=1;entryX=0.5;entryY=0;entryDx=0;entryDy=0;" edge="1" parent="1" source="Dz-Kh3eGNdh8o4RU7KDZ-43" target="Dz-Kh3eGNdh8o4RU7KDZ-6">
          <mxGeometry relative="1" as="geometry">
            <Array as="points">
              <mxPoint x="560" y="580" />
              <mxPoint x="700" y="580" />
            </Array>
          </mxGeometry>
        </mxCell>
        <mxCell id="Dz-Kh3eGNdh8o4RU7KDZ-203" value="&lt;font style=&quot;font-size: 15px;&quot;&gt;N&lt;/font&gt;" style="edgeLabel;html=1;align=center;verticalAlign=middle;resizable=0;points=[];" connectable="0" vertex="1" parent="Dz-Kh3eGNdh8o4RU7KDZ-202">
          <mxGeometry x="-0.8825" y="-1" relative="1" as="geometry">
            <mxPoint as="offset" />
          </mxGeometry>
        </mxCell>
        <mxCell id="Dz-Kh3eGNdh8o4RU7KDZ-43" value="Tem" style="rhombus;whiteSpace=wrap;html=1;rounded=0;" vertex="1" parent="1">
          <mxGeometry x="520" y="520" width="80" height="40" as="geometry" />
        </mxCell>
        <mxCell id="Dz-Kh3eGNdh8o4RU7KDZ-52" style="edgeStyle=orthogonalEdgeStyle;rounded=0;orthogonalLoop=1;jettySize=auto;html=1;entryX=0.5;entryY=1;entryDx=0;entryDy=0;" edge="1" parent="1" source="Dz-Kh3eGNdh8o4RU7KDZ-50" target="Dz-Kh3eGNdh8o4RU7KDZ-1">
          <mxGeometry relative="1" as="geometry">
            <Array as="points">
              <mxPoint x="400" y="270" />
              <mxPoint x="630" y="270" />
              <mxPoint x="630" y="200" />
              <mxPoint x="700" y="200" />
            </Array>
          </mxGeometry>
        </mxCell>
        <mxCell id="Dz-Kh3eGNdh8o4RU7KDZ-191" value="&lt;span style=&quot;font-size: 15px;&quot;&gt;&amp;nbsp;1&amp;nbsp;&lt;/span&gt;" style="edgeLabel;html=1;align=center;verticalAlign=middle;resizable=0;points=[];" connectable="0" vertex="1" parent="Dz-Kh3eGNdh8o4RU7KDZ-52">
          <mxGeometry x="0.729" y="1" relative="1" as="geometry">
            <mxPoint x="-1" as="offset" />
          </mxGeometry>
        </mxCell>
        <mxCell id="Dz-Kh3eGNdh8o4RU7KDZ-50" value="Tem" style="rhombus;whiteSpace=wrap;html=1;rounded=0;" vertex="1" parent="1">
          <mxGeometry x="370" y="320" width="80" height="40" as="geometry" />
        </mxCell>
        <mxCell id="Dz-Kh3eGNdh8o4RU7KDZ-53" value="&lt;font style=&quot;font-size: 11px;&quot;&gt;TempoPostado&lt;/font&gt;" style="ellipse;whiteSpace=wrap;html=1;" vertex="1" parent="1">
          <mxGeometry x="260" y="40" width="80" height="40" as="geometry" />
        </mxCell>
        <mxCell id="Dz-Kh3eGNdh8o4RU7KDZ-54" value="&lt;font style=&quot;font-size: 11px;&quot;&gt;Imagem&lt;/font&gt;" style="ellipse;whiteSpace=wrap;html=1;" vertex="1" parent="1">
          <mxGeometry x="140" y="40" width="80" height="40" as="geometry" />
        </mxCell>
        <mxCell id="Dz-Kh3eGNdh8o4RU7KDZ-55" value="&lt;font style=&quot;font-size: 11px;&quot;&gt;Música&lt;/font&gt;" style="ellipse;whiteSpace=wrap;html=1;" vertex="1" parent="1">
          <mxGeometry x="20" y="40" width="80" height="40" as="geometry" />
        </mxCell>
        <mxCell id="Dz-Kh3eGNdh8o4RU7KDZ-63" value="Postagem" style="shape=table;startSize=30;container=1;collapsible=1;childLayout=tableLayout;fixedRows=1;rowLines=0;fontStyle=1;align=center;resizeLast=1;html=1;" vertex="1" parent="1">
          <mxGeometry x="40" y="800" width="180" height="210" as="geometry" />
        </mxCell>
        <mxCell id="Dz-Kh3eGNdh8o4RU7KDZ-64" value="" style="shape=tableRow;horizontal=0;startSize=0;swimlaneHead=0;swimlaneBody=0;fillColor=none;collapsible=0;dropTarget=0;points=[[0,0.5],[1,0.5]];portConstraint=eastwest;top=0;left=0;right=0;bottom=1;" vertex="1" parent="Dz-Kh3eGNdh8o4RU7KDZ-63">
          <mxGeometry y="30" width="180" height="30" as="geometry" />
        </mxCell>
        <mxCell id="Dz-Kh3eGNdh8o4RU7KDZ-65" value="PK" style="shape=partialRectangle;connectable=0;fillColor=none;top=0;left=0;bottom=0;right=0;fontStyle=1;overflow=hidden;whiteSpace=wrap;html=1;" vertex="1" parent="Dz-Kh3eGNdh8o4RU7KDZ-64">
          <mxGeometry width="30" height="30" as="geometry">
            <mxRectangle width="30" height="30" as="alternateBounds" />
          </mxGeometry>
        </mxCell>
        <mxCell id="Dz-Kh3eGNdh8o4RU7KDZ-66" value="IdPostagem" style="shape=partialRectangle;connectable=0;fillColor=none;top=0;left=0;bottom=0;right=0;align=left;spacingLeft=6;fontStyle=5;overflow=hidden;whiteSpace=wrap;html=1;" vertex="1" parent="Dz-Kh3eGNdh8o4RU7KDZ-64">
          <mxGeometry x="30" width="150" height="30" as="geometry">
            <mxRectangle width="150" height="30" as="alternateBounds" />
          </mxGeometry>
        </mxCell>
        <mxCell id="Dz-Kh3eGNdh8o4RU7KDZ-67" value="" style="shape=tableRow;horizontal=0;startSize=0;swimlaneHead=0;swimlaneBody=0;fillColor=none;collapsible=0;dropTarget=0;points=[[0,0.5],[1,0.5]];portConstraint=eastwest;top=0;left=0;right=0;bottom=0;" vertex="1" parent="Dz-Kh3eGNdh8o4RU7KDZ-63">
          <mxGeometry y="60" width="180" height="30" as="geometry" />
        </mxCell>
        <mxCell id="Dz-Kh3eGNdh8o4RU7KDZ-68" value="" style="shape=partialRectangle;connectable=0;fillColor=none;top=0;left=0;bottom=0;right=0;editable=1;overflow=hidden;whiteSpace=wrap;html=1;" vertex="1" parent="Dz-Kh3eGNdh8o4RU7KDZ-67">
          <mxGeometry width="30" height="30" as="geometry">
            <mxRectangle width="30" height="30" as="alternateBounds" />
          </mxGeometry>
        </mxCell>
        <mxCell id="Dz-Kh3eGNdh8o4RU7KDZ-69" value="Descricao" style="shape=partialRectangle;connectable=0;fillColor=none;top=0;left=0;bottom=0;right=0;align=left;spacingLeft=6;overflow=hidden;whiteSpace=wrap;html=1;" vertex="1" parent="Dz-Kh3eGNdh8o4RU7KDZ-67">
          <mxGeometry x="30" width="150" height="30" as="geometry">
            <mxRectangle width="150" height="30" as="alternateBounds" />
          </mxGeometry>
        </mxCell>
        <mxCell id="Dz-Kh3eGNdh8o4RU7KDZ-70" value="" style="shape=tableRow;horizontal=0;startSize=0;swimlaneHead=0;swimlaneBody=0;fillColor=none;collapsible=0;dropTarget=0;points=[[0,0.5],[1,0.5]];portConstraint=eastwest;top=0;left=0;right=0;bottom=0;" vertex="1" parent="Dz-Kh3eGNdh8o4RU7KDZ-63">
          <mxGeometry y="90" width="180" height="30" as="geometry" />
        </mxCell>
        <mxCell id="Dz-Kh3eGNdh8o4RU7KDZ-71" value="" style="shape=partialRectangle;connectable=0;fillColor=none;top=0;left=0;bottom=0;right=0;editable=1;overflow=hidden;whiteSpace=wrap;html=1;" vertex="1" parent="Dz-Kh3eGNdh8o4RU7KDZ-70">
          <mxGeometry width="30" height="30" as="geometry">
            <mxRectangle width="30" height="30" as="alternateBounds" />
          </mxGeometry>
        </mxCell>
        <mxCell id="Dz-Kh3eGNdh8o4RU7KDZ-72" value="Musica" style="shape=partialRectangle;connectable=0;fillColor=none;top=0;left=0;bottom=0;right=0;align=left;spacingLeft=6;overflow=hidden;whiteSpace=wrap;html=1;" vertex="1" parent="Dz-Kh3eGNdh8o4RU7KDZ-70">
          <mxGeometry x="30" width="150" height="30" as="geometry">
            <mxRectangle width="150" height="30" as="alternateBounds" />
          </mxGeometry>
        </mxCell>
        <mxCell id="Dz-Kh3eGNdh8o4RU7KDZ-73" value="" style="shape=tableRow;horizontal=0;startSize=0;swimlaneHead=0;swimlaneBody=0;fillColor=none;collapsible=0;dropTarget=0;points=[[0,0.5],[1,0.5]];portConstraint=eastwest;top=0;left=0;right=0;bottom=0;" vertex="1" parent="Dz-Kh3eGNdh8o4RU7KDZ-63">
          <mxGeometry y="120" width="180" height="30" as="geometry" />
        </mxCell>
        <mxCell id="Dz-Kh3eGNdh8o4RU7KDZ-74" value="" style="shape=partialRectangle;connectable=0;fillColor=none;top=0;left=0;bottom=0;right=0;editable=1;overflow=hidden;whiteSpace=wrap;html=1;" vertex="1" parent="Dz-Kh3eGNdh8o4RU7KDZ-73">
          <mxGeometry width="30" height="30" as="geometry">
            <mxRectangle width="30" height="30" as="alternateBounds" />
          </mxGeometry>
        </mxCell>
        <mxCell id="Dz-Kh3eGNdh8o4RU7KDZ-75" value="Imagem" style="shape=partialRectangle;connectable=0;fillColor=none;top=0;left=0;bottom=0;right=0;align=left;spacingLeft=6;overflow=hidden;whiteSpace=wrap;html=1;" vertex="1" parent="Dz-Kh3eGNdh8o4RU7KDZ-73">
          <mxGeometry x="30" width="150" height="30" as="geometry">
            <mxRectangle width="150" height="30" as="alternateBounds" />
          </mxGeometry>
        </mxCell>
        <mxCell id="Dz-Kh3eGNdh8o4RU7KDZ-77" value="" style="shape=tableRow;horizontal=0;startSize=0;swimlaneHead=0;swimlaneBody=0;fillColor=none;collapsible=0;dropTarget=0;points=[[0,0.5],[1,0.5]];portConstraint=eastwest;top=0;left=0;right=0;bottom=0;" vertex="1" parent="Dz-Kh3eGNdh8o4RU7KDZ-63">
          <mxGeometry y="150" width="180" height="30" as="geometry" />
        </mxCell>
        <mxCell id="Dz-Kh3eGNdh8o4RU7KDZ-78" value="" style="shape=partialRectangle;connectable=0;fillColor=none;top=0;left=0;bottom=0;right=0;editable=1;overflow=hidden;whiteSpace=wrap;html=1;" vertex="1" parent="Dz-Kh3eGNdh8o4RU7KDZ-77">
          <mxGeometry width="30" height="30" as="geometry">
            <mxRectangle width="30" height="30" as="alternateBounds" />
          </mxGeometry>
        </mxCell>
        <mxCell id="Dz-Kh3eGNdh8o4RU7KDZ-79" value="TempoPostado" style="shape=partialRectangle;connectable=0;fillColor=none;top=0;left=0;bottom=0;right=0;align=left;spacingLeft=6;overflow=hidden;whiteSpace=wrap;html=1;" vertex="1" parent="Dz-Kh3eGNdh8o4RU7KDZ-77">
          <mxGeometry x="30" width="150" height="30" as="geometry">
            <mxRectangle width="150" height="30" as="alternateBounds" />
          </mxGeometry>
        </mxCell>
        <mxCell id="Dz-Kh3eGNdh8o4RU7KDZ-80" value="" style="shape=tableRow;horizontal=0;startSize=0;swimlaneHead=0;swimlaneBody=0;fillColor=none;collapsible=0;dropTarget=0;points=[[0,0.5],[1,0.5]];portConstraint=eastwest;top=0;left=0;right=0;bottom=0;" vertex="1" parent="Dz-Kh3eGNdh8o4RU7KDZ-63">
          <mxGeometry y="180" width="180" height="30" as="geometry" />
        </mxCell>
        <mxCell id="Dz-Kh3eGNdh8o4RU7KDZ-81" value="&lt;b&gt;FK1&lt;/b&gt;" style="shape=partialRectangle;connectable=0;fillColor=none;top=0;left=0;bottom=0;right=0;editable=1;overflow=hidden;whiteSpace=wrap;html=1;" vertex="1" parent="Dz-Kh3eGNdh8o4RU7KDZ-80">
          <mxGeometry width="30" height="30" as="geometry">
            <mxRectangle width="30" height="30" as="alternateBounds" />
          </mxGeometry>
        </mxCell>
        <mxCell id="Dz-Kh3eGNdh8o4RU7KDZ-82" value="&lt;b&gt;IdUsuario&lt;/b&gt;" style="shape=partialRectangle;connectable=0;fillColor=none;top=0;left=0;bottom=0;right=0;align=left;spacingLeft=6;overflow=hidden;whiteSpace=wrap;html=1;" vertex="1" parent="Dz-Kh3eGNdh8o4RU7KDZ-80">
          <mxGeometry x="30" width="150" height="30" as="geometry">
            <mxRectangle width="150" height="30" as="alternateBounds" />
          </mxGeometry>
        </mxCell>
        <mxCell id="Dz-Kh3eGNdh8o4RU7KDZ-92" value="Usuário" style="shape=table;startSize=30;container=1;collapsible=1;childLayout=tableLayout;fixedRows=1;rowLines=0;fontStyle=1;align=center;resizeLast=1;html=1;" vertex="1" parent="1">
          <mxGeometry x="400" y="800" width="180" height="210" as="geometry" />
        </mxCell>
        <mxCell id="Dz-Kh3eGNdh8o4RU7KDZ-93" value="" style="shape=tableRow;horizontal=0;startSize=0;swimlaneHead=0;swimlaneBody=0;fillColor=none;collapsible=0;dropTarget=0;points=[[0,0.5],[1,0.5]];portConstraint=eastwest;top=0;left=0;right=0;bottom=1;" vertex="1" parent="Dz-Kh3eGNdh8o4RU7KDZ-92">
          <mxGeometry y="30" width="180" height="30" as="geometry" />
        </mxCell>
        <mxCell id="Dz-Kh3eGNdh8o4RU7KDZ-94" value="PK" style="shape=partialRectangle;connectable=0;fillColor=none;top=0;left=0;bottom=0;right=0;fontStyle=1;overflow=hidden;whiteSpace=wrap;html=1;" vertex="1" parent="Dz-Kh3eGNdh8o4RU7KDZ-93">
          <mxGeometry width="30" height="30" as="geometry">
            <mxRectangle width="30" height="30" as="alternateBounds" />
          </mxGeometry>
        </mxCell>
        <mxCell id="Dz-Kh3eGNdh8o4RU7KDZ-95" value="IdUsuario" style="shape=partialRectangle;connectable=0;fillColor=none;top=0;left=0;bottom=0;right=0;align=left;spacingLeft=6;fontStyle=5;overflow=hidden;whiteSpace=wrap;html=1;" vertex="1" parent="Dz-Kh3eGNdh8o4RU7KDZ-93">
          <mxGeometry x="30" width="150" height="30" as="geometry">
            <mxRectangle width="150" height="30" as="alternateBounds" />
          </mxGeometry>
        </mxCell>
        <mxCell id="Dz-Kh3eGNdh8o4RU7KDZ-96" value="" style="shape=tableRow;horizontal=0;startSize=0;swimlaneHead=0;swimlaneBody=0;fillColor=none;collapsible=0;dropTarget=0;points=[[0,0.5],[1,0.5]];portConstraint=eastwest;top=0;left=0;right=0;bottom=0;" vertex="1" parent="Dz-Kh3eGNdh8o4RU7KDZ-92">
          <mxGeometry y="60" width="180" height="30" as="geometry" />
        </mxCell>
        <mxCell id="Dz-Kh3eGNdh8o4RU7KDZ-97" value="" style="shape=partialRectangle;connectable=0;fillColor=none;top=0;left=0;bottom=0;right=0;editable=1;overflow=hidden;whiteSpace=wrap;html=1;" vertex="1" parent="Dz-Kh3eGNdh8o4RU7KDZ-96">
          <mxGeometry width="30" height="30" as="geometry">
            <mxRectangle width="30" height="30" as="alternateBounds" />
          </mxGeometry>
        </mxCell>
        <mxCell id="Dz-Kh3eGNdh8o4RU7KDZ-98" value="NomeCompleto" style="shape=partialRectangle;connectable=0;fillColor=none;top=0;left=0;bottom=0;right=0;align=left;spacingLeft=6;overflow=hidden;whiteSpace=wrap;html=1;" vertex="1" parent="Dz-Kh3eGNdh8o4RU7KDZ-96">
          <mxGeometry x="30" width="150" height="30" as="geometry">
            <mxRectangle width="150" height="30" as="alternateBounds" />
          </mxGeometry>
        </mxCell>
        <mxCell id="Dz-Kh3eGNdh8o4RU7KDZ-99" value="" style="shape=tableRow;horizontal=0;startSize=0;swimlaneHead=0;swimlaneBody=0;fillColor=none;collapsible=0;dropTarget=0;points=[[0,0.5],[1,0.5]];portConstraint=eastwest;top=0;left=0;right=0;bottom=0;" vertex="1" parent="Dz-Kh3eGNdh8o4RU7KDZ-92">
          <mxGeometry y="90" width="180" height="30" as="geometry" />
        </mxCell>
        <mxCell id="Dz-Kh3eGNdh8o4RU7KDZ-100" value="" style="shape=partialRectangle;connectable=0;fillColor=none;top=0;left=0;bottom=0;right=0;editable=1;overflow=hidden;whiteSpace=wrap;html=1;" vertex="1" parent="Dz-Kh3eGNdh8o4RU7KDZ-99">
          <mxGeometry width="30" height="30" as="geometry">
            <mxRectangle width="30" height="30" as="alternateBounds" />
          </mxGeometry>
        </mxCell>
        <mxCell id="Dz-Kh3eGNdh8o4RU7KDZ-101" value="NomeUsuario" style="shape=partialRectangle;connectable=0;fillColor=none;top=0;left=0;bottom=0;right=0;align=left;spacingLeft=6;overflow=hidden;whiteSpace=wrap;html=1;" vertex="1" parent="Dz-Kh3eGNdh8o4RU7KDZ-99">
          <mxGeometry x="30" width="150" height="30" as="geometry">
            <mxRectangle width="150" height="30" as="alternateBounds" />
          </mxGeometry>
        </mxCell>
        <mxCell id="Dz-Kh3eGNdh8o4RU7KDZ-102" value="" style="shape=tableRow;horizontal=0;startSize=0;swimlaneHead=0;swimlaneBody=0;fillColor=none;collapsible=0;dropTarget=0;points=[[0,0.5],[1,0.5]];portConstraint=eastwest;top=0;left=0;right=0;bottom=0;" vertex="1" parent="Dz-Kh3eGNdh8o4RU7KDZ-92">
          <mxGeometry y="120" width="180" height="30" as="geometry" />
        </mxCell>
        <mxCell id="Dz-Kh3eGNdh8o4RU7KDZ-103" value="" style="shape=partialRectangle;connectable=0;fillColor=none;top=0;left=0;bottom=0;right=0;editable=1;overflow=hidden;whiteSpace=wrap;html=1;" vertex="1" parent="Dz-Kh3eGNdh8o4RU7KDZ-102">
          <mxGeometry width="30" height="30" as="geometry">
            <mxRectangle width="30" height="30" as="alternateBounds" />
          </mxGeometry>
        </mxCell>
        <mxCell id="Dz-Kh3eGNdh8o4RU7KDZ-104" value="Email" style="shape=partialRectangle;connectable=0;fillColor=none;top=0;left=0;bottom=0;right=0;align=left;spacingLeft=6;overflow=hidden;whiteSpace=wrap;html=1;" vertex="1" parent="Dz-Kh3eGNdh8o4RU7KDZ-102">
          <mxGeometry x="30" width="150" height="30" as="geometry">
            <mxRectangle width="150" height="30" as="alternateBounds" />
          </mxGeometry>
        </mxCell>
        <mxCell id="Dz-Kh3eGNdh8o4RU7KDZ-105" value="" style="shape=tableRow;horizontal=0;startSize=0;swimlaneHead=0;swimlaneBody=0;fillColor=none;collapsible=0;dropTarget=0;points=[[0,0.5],[1,0.5]];portConstraint=eastwest;top=0;left=0;right=0;bottom=0;" vertex="1" parent="Dz-Kh3eGNdh8o4RU7KDZ-92">
          <mxGeometry y="150" width="180" height="30" as="geometry" />
        </mxCell>
        <mxCell id="Dz-Kh3eGNdh8o4RU7KDZ-106" value="" style="shape=partialRectangle;connectable=0;fillColor=none;top=0;left=0;bottom=0;right=0;editable=1;overflow=hidden;whiteSpace=wrap;html=1;" vertex="1" parent="Dz-Kh3eGNdh8o4RU7KDZ-105">
          <mxGeometry width="30" height="30" as="geometry">
            <mxRectangle width="30" height="30" as="alternateBounds" />
          </mxGeometry>
        </mxCell>
        <mxCell id="Dz-Kh3eGNdh8o4RU7KDZ-107" value="Senha" style="shape=partialRectangle;connectable=0;fillColor=none;top=0;left=0;bottom=0;right=0;align=left;spacingLeft=6;overflow=hidden;whiteSpace=wrap;html=1;" vertex="1" parent="Dz-Kh3eGNdh8o4RU7KDZ-105">
          <mxGeometry x="30" width="150" height="30" as="geometry">
            <mxRectangle width="150" height="30" as="alternateBounds" />
          </mxGeometry>
        </mxCell>
        <mxCell id="Dz-Kh3eGNdh8o4RU7KDZ-117" value="" style="shape=tableRow;horizontal=0;startSize=0;swimlaneHead=0;swimlaneBody=0;fillColor=none;collapsible=0;dropTarget=0;points=[[0,0.5],[1,0.5]];portConstraint=eastwest;top=0;left=0;right=0;bottom=0;" vertex="1" parent="Dz-Kh3eGNdh8o4RU7KDZ-92">
          <mxGeometry y="180" width="180" height="30" as="geometry" />
        </mxCell>
        <mxCell id="Dz-Kh3eGNdh8o4RU7KDZ-118" value="" style="shape=partialRectangle;connectable=0;fillColor=none;top=0;left=0;bottom=0;right=0;editable=1;overflow=hidden;whiteSpace=wrap;html=1;" vertex="1" parent="Dz-Kh3eGNdh8o4RU7KDZ-117">
          <mxGeometry width="30" height="30" as="geometry">
            <mxRectangle width="30" height="30" as="alternateBounds" />
          </mxGeometry>
        </mxCell>
        <mxCell id="Dz-Kh3eGNdh8o4RU7KDZ-119" value="FotoPerfil" style="shape=partialRectangle;connectable=0;fillColor=none;top=0;left=0;bottom=0;right=0;align=left;spacingLeft=6;overflow=hidden;whiteSpace=wrap;html=1;" vertex="1" parent="Dz-Kh3eGNdh8o4RU7KDZ-117">
          <mxGeometry x="30" width="150" height="30" as="geometry">
            <mxRectangle width="150" height="30" as="alternateBounds" />
          </mxGeometry>
        </mxCell>
        <mxCell id="Dz-Kh3eGNdh8o4RU7KDZ-120" value="Curtida" style="shape=table;startSize=30;container=1;collapsible=1;childLayout=tableLayout;fixedRows=1;rowLines=0;fontStyle=1;align=center;resizeLast=1;html=1;" vertex="1" parent="1">
          <mxGeometry x="400" y="1160" width="180" height="150" as="geometry" />
        </mxCell>
        <mxCell id="Dz-Kh3eGNdh8o4RU7KDZ-121" value="" style="shape=tableRow;horizontal=0;startSize=0;swimlaneHead=0;swimlaneBody=0;fillColor=none;collapsible=0;dropTarget=0;points=[[0,0.5],[1,0.5]];portConstraint=eastwest;top=0;left=0;right=0;bottom=1;" vertex="1" parent="Dz-Kh3eGNdh8o4RU7KDZ-120">
          <mxGeometry y="30" width="180" height="30" as="geometry" />
        </mxCell>
        <mxCell id="Dz-Kh3eGNdh8o4RU7KDZ-122" value="PK" style="shape=partialRectangle;connectable=0;fillColor=none;top=0;left=0;bottom=0;right=0;fontStyle=1;overflow=hidden;whiteSpace=wrap;html=1;" vertex="1" parent="Dz-Kh3eGNdh8o4RU7KDZ-121">
          <mxGeometry width="30" height="30" as="geometry">
            <mxRectangle width="30" height="30" as="alternateBounds" />
          </mxGeometry>
        </mxCell>
        <mxCell id="Dz-Kh3eGNdh8o4RU7KDZ-123" value="IdCurtida" style="shape=partialRectangle;connectable=0;fillColor=none;top=0;left=0;bottom=0;right=0;align=left;spacingLeft=6;fontStyle=5;overflow=hidden;whiteSpace=wrap;html=1;" vertex="1" parent="Dz-Kh3eGNdh8o4RU7KDZ-121">
          <mxGeometry x="30" width="150" height="30" as="geometry">
            <mxRectangle width="150" height="30" as="alternateBounds" />
          </mxGeometry>
        </mxCell>
        <mxCell id="Dz-Kh3eGNdh8o4RU7KDZ-124" value="" style="shape=tableRow;horizontal=0;startSize=0;swimlaneHead=0;swimlaneBody=0;fillColor=none;collapsible=0;dropTarget=0;points=[[0,0.5],[1,0.5]];portConstraint=eastwest;top=0;left=0;right=0;bottom=0;" vertex="1" parent="Dz-Kh3eGNdh8o4RU7KDZ-120">
          <mxGeometry y="60" width="180" height="30" as="geometry" />
        </mxCell>
        <mxCell id="Dz-Kh3eGNdh8o4RU7KDZ-125" value="&lt;b&gt;FK1&lt;/b&gt;" style="shape=partialRectangle;connectable=0;fillColor=none;top=0;left=0;bottom=0;right=0;editable=1;overflow=hidden;whiteSpace=wrap;html=1;" vertex="1" parent="Dz-Kh3eGNdh8o4RU7KDZ-124">
          <mxGeometry width="30" height="30" as="geometry">
            <mxRectangle width="30" height="30" as="alternateBounds" />
          </mxGeometry>
        </mxCell>
        <mxCell id="Dz-Kh3eGNdh8o4RU7KDZ-126" value="&lt;b&gt;IdUsuario&lt;/b&gt;" style="shape=partialRectangle;connectable=0;fillColor=none;top=0;left=0;bottom=0;right=0;align=left;spacingLeft=6;overflow=hidden;whiteSpace=wrap;html=1;" vertex="1" parent="Dz-Kh3eGNdh8o4RU7KDZ-124">
          <mxGeometry x="30" width="150" height="30" as="geometry">
            <mxRectangle width="150" height="30" as="alternateBounds" />
          </mxGeometry>
        </mxCell>
        <mxCell id="Dz-Kh3eGNdh8o4RU7KDZ-230" value="" style="shape=tableRow;horizontal=0;startSize=0;swimlaneHead=0;swimlaneBody=0;fillColor=none;collapsible=0;dropTarget=0;points=[[0,0.5],[1,0.5]];portConstraint=eastwest;top=0;left=0;right=0;bottom=0;" vertex="1" parent="Dz-Kh3eGNdh8o4RU7KDZ-120">
          <mxGeometry y="90" width="180" height="30" as="geometry" />
        </mxCell>
        <mxCell id="Dz-Kh3eGNdh8o4RU7KDZ-231" value="&lt;b&gt;FK2&lt;/b&gt;" style="shape=partialRectangle;connectable=0;fillColor=none;top=0;left=0;bottom=0;right=0;editable=1;overflow=hidden;whiteSpace=wrap;html=1;" vertex="1" parent="Dz-Kh3eGNdh8o4RU7KDZ-230">
          <mxGeometry width="30" height="30" as="geometry">
            <mxRectangle width="30" height="30" as="alternateBounds" />
          </mxGeometry>
        </mxCell>
        <mxCell id="Dz-Kh3eGNdh8o4RU7KDZ-232" value="&lt;b&gt;IdPublicacao&lt;/b&gt;" style="shape=partialRectangle;connectable=0;fillColor=none;top=0;left=0;bottom=0;right=0;align=left;spacingLeft=6;overflow=hidden;whiteSpace=wrap;html=1;" vertex="1" parent="Dz-Kh3eGNdh8o4RU7KDZ-230">
          <mxGeometry x="30" width="150" height="30" as="geometry">
            <mxRectangle width="150" height="30" as="alternateBounds" />
          </mxGeometry>
        </mxCell>
        <mxCell id="Dz-Kh3eGNdh8o4RU7KDZ-240" value="" style="shape=tableRow;horizontal=0;startSize=0;swimlaneHead=0;swimlaneBody=0;fillColor=none;collapsible=0;dropTarget=0;points=[[0,0.5],[1,0.5]];portConstraint=eastwest;top=0;left=0;right=0;bottom=0;" vertex="1" parent="Dz-Kh3eGNdh8o4RU7KDZ-120">
          <mxGeometry y="120" width="180" height="30" as="geometry" />
        </mxCell>
        <mxCell id="Dz-Kh3eGNdh8o4RU7KDZ-241" value="&lt;b&gt;FK3&lt;/b&gt;" style="shape=partialRectangle;connectable=0;fillColor=none;top=0;left=0;bottom=0;right=0;editable=1;overflow=hidden;whiteSpace=wrap;html=1;" vertex="1" parent="Dz-Kh3eGNdh8o4RU7KDZ-240">
          <mxGeometry width="30" height="30" as="geometry">
            <mxRectangle width="30" height="30" as="alternateBounds" />
          </mxGeometry>
        </mxCell>
        <mxCell id="Dz-Kh3eGNdh8o4RU7KDZ-242" value="&lt;b&gt;IdStory&lt;/b&gt;" style="shape=partialRectangle;connectable=0;fillColor=none;top=0;left=0;bottom=0;right=0;align=left;spacingLeft=6;overflow=hidden;whiteSpace=wrap;html=1;" vertex="1" parent="Dz-Kh3eGNdh8o4RU7KDZ-240">
          <mxGeometry x="30" width="150" height="30" as="geometry">
            <mxRectangle width="150" height="30" as="alternateBounds" />
          </mxGeometry>
        </mxCell>
        <mxCell id="Dz-Kh3eGNdh8o4RU7KDZ-139" value="Comentário" style="shape=table;startSize=30;container=1;collapsible=1;childLayout=tableLayout;fixedRows=1;rowLines=0;fontStyle=1;align=center;resizeLast=1;html=1;" vertex="1" parent="1">
          <mxGeometry x="760" y="1160" width="180" height="150" as="geometry" />
        </mxCell>
        <mxCell id="Dz-Kh3eGNdh8o4RU7KDZ-140" value="" style="shape=tableRow;horizontal=0;startSize=0;swimlaneHead=0;swimlaneBody=0;fillColor=none;collapsible=0;dropTarget=0;points=[[0,0.5],[1,0.5]];portConstraint=eastwest;top=0;left=0;right=0;bottom=1;" vertex="1" parent="Dz-Kh3eGNdh8o4RU7KDZ-139">
          <mxGeometry y="30" width="180" height="30" as="geometry" />
        </mxCell>
        <mxCell id="Dz-Kh3eGNdh8o4RU7KDZ-141" value="PK" style="shape=partialRectangle;connectable=0;fillColor=none;top=0;left=0;bottom=0;right=0;fontStyle=1;overflow=hidden;whiteSpace=wrap;html=1;" vertex="1" parent="Dz-Kh3eGNdh8o4RU7KDZ-140">
          <mxGeometry width="30" height="30" as="geometry">
            <mxRectangle width="30" height="30" as="alternateBounds" />
          </mxGeometry>
        </mxCell>
        <mxCell id="Dz-Kh3eGNdh8o4RU7KDZ-142" value="IdComentario" style="shape=partialRectangle;connectable=0;fillColor=none;top=0;left=0;bottom=0;right=0;align=left;spacingLeft=6;fontStyle=5;overflow=hidden;whiteSpace=wrap;html=1;" vertex="1" parent="Dz-Kh3eGNdh8o4RU7KDZ-140">
          <mxGeometry x="30" width="150" height="30" as="geometry">
            <mxRectangle width="150" height="30" as="alternateBounds" />
          </mxGeometry>
        </mxCell>
        <mxCell id="Dz-Kh3eGNdh8o4RU7KDZ-143" value="" style="shape=tableRow;horizontal=0;startSize=0;swimlaneHead=0;swimlaneBody=0;fillColor=none;collapsible=0;dropTarget=0;points=[[0,0.5],[1,0.5]];portConstraint=eastwest;top=0;left=0;right=0;bottom=0;" vertex="1" parent="Dz-Kh3eGNdh8o4RU7KDZ-139">
          <mxGeometry y="60" width="180" height="30" as="geometry" />
        </mxCell>
        <mxCell id="Dz-Kh3eGNdh8o4RU7KDZ-144" value="&lt;b&gt;FK1&lt;/b&gt;" style="shape=partialRectangle;connectable=0;fillColor=none;top=0;left=0;bottom=0;right=0;editable=1;overflow=hidden;whiteSpace=wrap;html=1;" vertex="1" parent="Dz-Kh3eGNdh8o4RU7KDZ-143">
          <mxGeometry width="30" height="30" as="geometry">
            <mxRectangle width="30" height="30" as="alternateBounds" />
          </mxGeometry>
        </mxCell>
        <mxCell id="Dz-Kh3eGNdh8o4RU7KDZ-145" value="&lt;b&gt;IdUsuario&lt;/b&gt;" style="shape=partialRectangle;connectable=0;fillColor=none;top=0;left=0;bottom=0;right=0;align=left;spacingLeft=6;overflow=hidden;whiteSpace=wrap;html=1;" vertex="1" parent="Dz-Kh3eGNdh8o4RU7KDZ-143">
          <mxGeometry x="30" width="150" height="30" as="geometry">
            <mxRectangle width="150" height="30" as="alternateBounds" />
          </mxGeometry>
        </mxCell>
        <mxCell id="Dz-Kh3eGNdh8o4RU7KDZ-237" value="" style="shape=tableRow;horizontal=0;startSize=0;swimlaneHead=0;swimlaneBody=0;fillColor=none;collapsible=0;dropTarget=0;points=[[0,0.5],[1,0.5]];portConstraint=eastwest;top=0;left=0;right=0;bottom=0;" vertex="1" parent="Dz-Kh3eGNdh8o4RU7KDZ-139">
          <mxGeometry y="90" width="180" height="30" as="geometry" />
        </mxCell>
        <mxCell id="Dz-Kh3eGNdh8o4RU7KDZ-238" value="&lt;b&gt;FK2&lt;/b&gt;" style="shape=partialRectangle;connectable=0;fillColor=none;top=0;left=0;bottom=0;right=0;editable=1;overflow=hidden;whiteSpace=wrap;html=1;" vertex="1" parent="Dz-Kh3eGNdh8o4RU7KDZ-237">
          <mxGeometry width="30" height="30" as="geometry">
            <mxRectangle width="30" height="30" as="alternateBounds" />
          </mxGeometry>
        </mxCell>
        <mxCell id="Dz-Kh3eGNdh8o4RU7KDZ-239" value="&lt;b&gt;IdPublicacao&lt;/b&gt;" style="shape=partialRectangle;connectable=0;fillColor=none;top=0;left=0;bottom=0;right=0;align=left;spacingLeft=6;overflow=hidden;whiteSpace=wrap;html=1;" vertex="1" parent="Dz-Kh3eGNdh8o4RU7KDZ-237">
          <mxGeometry x="30" width="150" height="30" as="geometry">
            <mxRectangle width="150" height="30" as="alternateBounds" />
          </mxGeometry>
        </mxCell>
        <mxCell id="Dz-Kh3eGNdh8o4RU7KDZ-243" value="" style="shape=tableRow;horizontal=0;startSize=0;swimlaneHead=0;swimlaneBody=0;fillColor=none;collapsible=0;dropTarget=0;points=[[0,0.5],[1,0.5]];portConstraint=eastwest;top=0;left=0;right=0;bottom=0;" vertex="1" parent="Dz-Kh3eGNdh8o4RU7KDZ-139">
          <mxGeometry y="120" width="180" height="30" as="geometry" />
        </mxCell>
        <mxCell id="Dz-Kh3eGNdh8o4RU7KDZ-244" value="&lt;b&gt;FK3&lt;/b&gt;" style="shape=partialRectangle;connectable=0;fillColor=none;top=0;left=0;bottom=0;right=0;editable=1;overflow=hidden;whiteSpace=wrap;html=1;" vertex="1" parent="Dz-Kh3eGNdh8o4RU7KDZ-243">
          <mxGeometry width="30" height="30" as="geometry">
            <mxRectangle width="30" height="30" as="alternateBounds" />
          </mxGeometry>
        </mxCell>
        <mxCell id="Dz-Kh3eGNdh8o4RU7KDZ-245" value="&lt;b&gt;IdStory&lt;/b&gt;" style="shape=partialRectangle;connectable=0;fillColor=none;top=0;left=0;bottom=0;right=0;align=left;spacingLeft=6;overflow=hidden;whiteSpace=wrap;html=1;" vertex="1" parent="Dz-Kh3eGNdh8o4RU7KDZ-243">
          <mxGeometry x="30" width="150" height="30" as="geometry">
            <mxRectangle width="150" height="30" as="alternateBounds" />
          </mxGeometry>
        </mxCell>
        <mxCell id="Dz-Kh3eGNdh8o4RU7KDZ-146" value="Story" style="shape=table;startSize=30;container=1;collapsible=1;childLayout=tableLayout;fixedRows=1;rowLines=0;fontStyle=1;align=center;resizeLast=1;html=1;" vertex="1" parent="1">
          <mxGeometry x="40" y="1160" width="180" height="210" as="geometry" />
        </mxCell>
        <mxCell id="Dz-Kh3eGNdh8o4RU7KDZ-147" value="" style="shape=tableRow;horizontal=0;startSize=0;swimlaneHead=0;swimlaneBody=0;fillColor=none;collapsible=0;dropTarget=0;points=[[0,0.5],[1,0.5]];portConstraint=eastwest;top=0;left=0;right=0;bottom=1;" vertex="1" parent="Dz-Kh3eGNdh8o4RU7KDZ-146">
          <mxGeometry y="30" width="180" height="30" as="geometry" />
        </mxCell>
        <mxCell id="Dz-Kh3eGNdh8o4RU7KDZ-148" value="PK" style="shape=partialRectangle;connectable=0;fillColor=none;top=0;left=0;bottom=0;right=0;fontStyle=1;overflow=hidden;whiteSpace=wrap;html=1;" vertex="1" parent="Dz-Kh3eGNdh8o4RU7KDZ-147">
          <mxGeometry width="30" height="30" as="geometry">
            <mxRectangle width="30" height="30" as="alternateBounds" />
          </mxGeometry>
        </mxCell>
        <mxCell id="Dz-Kh3eGNdh8o4RU7KDZ-149" value="IdStory" style="shape=partialRectangle;connectable=0;fillColor=none;top=0;left=0;bottom=0;right=0;align=left;spacingLeft=6;fontStyle=5;overflow=hidden;whiteSpace=wrap;html=1;" vertex="1" parent="Dz-Kh3eGNdh8o4RU7KDZ-147">
          <mxGeometry x="30" width="150" height="30" as="geometry">
            <mxRectangle width="150" height="30" as="alternateBounds" />
          </mxGeometry>
        </mxCell>
        <mxCell id="Dz-Kh3eGNdh8o4RU7KDZ-150" value="" style="shape=tableRow;horizontal=0;startSize=0;swimlaneHead=0;swimlaneBody=0;fillColor=none;collapsible=0;dropTarget=0;points=[[0,0.5],[1,0.5]];portConstraint=eastwest;top=0;left=0;right=0;bottom=0;" vertex="1" parent="Dz-Kh3eGNdh8o4RU7KDZ-146">
          <mxGeometry y="60" width="180" height="30" as="geometry" />
        </mxCell>
        <mxCell id="Dz-Kh3eGNdh8o4RU7KDZ-151" value="" style="shape=partialRectangle;connectable=0;fillColor=none;top=0;left=0;bottom=0;right=0;editable=1;overflow=hidden;whiteSpace=wrap;html=1;" vertex="1" parent="Dz-Kh3eGNdh8o4RU7KDZ-150">
          <mxGeometry width="30" height="30" as="geometry">
            <mxRectangle width="30" height="30" as="alternateBounds" />
          </mxGeometry>
        </mxCell>
        <mxCell id="Dz-Kh3eGNdh8o4RU7KDZ-152" value="Legenda" style="shape=partialRectangle;connectable=0;fillColor=none;top=0;left=0;bottom=0;right=0;align=left;spacingLeft=6;overflow=hidden;whiteSpace=wrap;html=1;" vertex="1" parent="Dz-Kh3eGNdh8o4RU7KDZ-150">
          <mxGeometry x="30" width="150" height="30" as="geometry">
            <mxRectangle width="150" height="30" as="alternateBounds" />
          </mxGeometry>
        </mxCell>
        <mxCell id="Dz-Kh3eGNdh8o4RU7KDZ-153" value="" style="shape=tableRow;horizontal=0;startSize=0;swimlaneHead=0;swimlaneBody=0;fillColor=none;collapsible=0;dropTarget=0;points=[[0,0.5],[1,0.5]];portConstraint=eastwest;top=0;left=0;right=0;bottom=0;" vertex="1" parent="Dz-Kh3eGNdh8o4RU7KDZ-146">
          <mxGeometry y="90" width="180" height="30" as="geometry" />
        </mxCell>
        <mxCell id="Dz-Kh3eGNdh8o4RU7KDZ-154" value="" style="shape=partialRectangle;connectable=0;fillColor=none;top=0;left=0;bottom=0;right=0;editable=1;overflow=hidden;whiteSpace=wrap;html=1;" vertex="1" parent="Dz-Kh3eGNdh8o4RU7KDZ-153">
          <mxGeometry width="30" height="30" as="geometry">
            <mxRectangle width="30" height="30" as="alternateBounds" />
          </mxGeometry>
        </mxCell>
        <mxCell id="Dz-Kh3eGNdh8o4RU7KDZ-155" value="Musica" style="shape=partialRectangle;connectable=0;fillColor=none;top=0;left=0;bottom=0;right=0;align=left;spacingLeft=6;overflow=hidden;whiteSpace=wrap;html=1;" vertex="1" parent="Dz-Kh3eGNdh8o4RU7KDZ-153">
          <mxGeometry x="30" width="150" height="30" as="geometry">
            <mxRectangle width="150" height="30" as="alternateBounds" />
          </mxGeometry>
        </mxCell>
        <mxCell id="Dz-Kh3eGNdh8o4RU7KDZ-156" value="" style="shape=tableRow;horizontal=0;startSize=0;swimlaneHead=0;swimlaneBody=0;fillColor=none;collapsible=0;dropTarget=0;points=[[0,0.5],[1,0.5]];portConstraint=eastwest;top=0;left=0;right=0;bottom=0;" vertex="1" parent="Dz-Kh3eGNdh8o4RU7KDZ-146">
          <mxGeometry y="120" width="180" height="30" as="geometry" />
        </mxCell>
        <mxCell id="Dz-Kh3eGNdh8o4RU7KDZ-157" value="" style="shape=partialRectangle;connectable=0;fillColor=none;top=0;left=0;bottom=0;right=0;editable=1;overflow=hidden;whiteSpace=wrap;html=1;" vertex="1" parent="Dz-Kh3eGNdh8o4RU7KDZ-156">
          <mxGeometry width="30" height="30" as="geometry">
            <mxRectangle width="30" height="30" as="alternateBounds" />
          </mxGeometry>
        </mxCell>
        <mxCell id="Dz-Kh3eGNdh8o4RU7KDZ-158" value="Imagem" style="shape=partialRectangle;connectable=0;fillColor=none;top=0;left=0;bottom=0;right=0;align=left;spacingLeft=6;overflow=hidden;whiteSpace=wrap;html=1;" vertex="1" parent="Dz-Kh3eGNdh8o4RU7KDZ-156">
          <mxGeometry x="30" width="150" height="30" as="geometry">
            <mxRectangle width="150" height="30" as="alternateBounds" />
          </mxGeometry>
        </mxCell>
        <mxCell id="Dz-Kh3eGNdh8o4RU7KDZ-159" value="" style="shape=tableRow;horizontal=0;startSize=0;swimlaneHead=0;swimlaneBody=0;fillColor=none;collapsible=0;dropTarget=0;points=[[0,0.5],[1,0.5]];portConstraint=eastwest;top=0;left=0;right=0;bottom=0;" vertex="1" parent="Dz-Kh3eGNdh8o4RU7KDZ-146">
          <mxGeometry y="150" width="180" height="30" as="geometry" />
        </mxCell>
        <mxCell id="Dz-Kh3eGNdh8o4RU7KDZ-160" value="" style="shape=partialRectangle;connectable=0;fillColor=none;top=0;left=0;bottom=0;right=0;editable=1;overflow=hidden;whiteSpace=wrap;html=1;" vertex="1" parent="Dz-Kh3eGNdh8o4RU7KDZ-159">
          <mxGeometry width="30" height="30" as="geometry">
            <mxRectangle width="30" height="30" as="alternateBounds" />
          </mxGeometry>
        </mxCell>
        <mxCell id="Dz-Kh3eGNdh8o4RU7KDZ-161" value="TempoPostado" style="shape=partialRectangle;connectable=0;fillColor=none;top=0;left=0;bottom=0;right=0;align=left;spacingLeft=6;overflow=hidden;whiteSpace=wrap;html=1;" vertex="1" parent="Dz-Kh3eGNdh8o4RU7KDZ-159">
          <mxGeometry x="30" width="150" height="30" as="geometry">
            <mxRectangle width="150" height="30" as="alternateBounds" />
          </mxGeometry>
        </mxCell>
        <mxCell id="Dz-Kh3eGNdh8o4RU7KDZ-162" value="" style="shape=tableRow;horizontal=0;startSize=0;swimlaneHead=0;swimlaneBody=0;fillColor=none;collapsible=0;dropTarget=0;points=[[0,0.5],[1,0.5]];portConstraint=eastwest;top=0;left=0;right=0;bottom=0;" vertex="1" parent="Dz-Kh3eGNdh8o4RU7KDZ-146">
          <mxGeometry y="180" width="180" height="30" as="geometry" />
        </mxCell>
        <mxCell id="Dz-Kh3eGNdh8o4RU7KDZ-163" value="&lt;b&gt;FK1&lt;/b&gt;" style="shape=partialRectangle;connectable=0;fillColor=none;top=0;left=0;bottom=0;right=0;editable=1;overflow=hidden;whiteSpace=wrap;html=1;" vertex="1" parent="Dz-Kh3eGNdh8o4RU7KDZ-162">
          <mxGeometry width="30" height="30" as="geometry">
            <mxRectangle width="30" height="30" as="alternateBounds" />
          </mxGeometry>
        </mxCell>
        <mxCell id="Dz-Kh3eGNdh8o4RU7KDZ-164" value="&lt;b&gt;IdUsuario&lt;/b&gt;" style="shape=partialRectangle;connectable=0;fillColor=none;top=0;left=0;bottom=0;right=0;align=left;spacingLeft=6;overflow=hidden;whiteSpace=wrap;html=1;" vertex="1" parent="Dz-Kh3eGNdh8o4RU7KDZ-162">
          <mxGeometry x="30" width="150" height="30" as="geometry">
            <mxRectangle width="150" height="30" as="alternateBounds" />
          </mxGeometry>
        </mxCell>
        <mxCell id="Dz-Kh3eGNdh8o4RU7KDZ-171" value="Seguindo" style="shape=table;startSize=30;container=1;collapsible=1;childLayout=tableLayout;fixedRows=1;rowLines=0;fontStyle=1;align=center;resizeLast=1;html=1;" vertex="1" parent="1">
          <mxGeometry x="760" y="940" width="180" height="90" as="geometry" />
        </mxCell>
        <mxCell id="Dz-Kh3eGNdh8o4RU7KDZ-172" value="" style="shape=tableRow;horizontal=0;startSize=0;swimlaneHead=0;swimlaneBody=0;fillColor=none;collapsible=0;dropTarget=0;points=[[0,0.5],[1,0.5]];portConstraint=eastwest;top=0;left=0;right=0;bottom=1;" vertex="1" parent="Dz-Kh3eGNdh8o4RU7KDZ-171">
          <mxGeometry y="30" width="180" height="30" as="geometry" />
        </mxCell>
        <mxCell id="Dz-Kh3eGNdh8o4RU7KDZ-173" value="PK" style="shape=partialRectangle;connectable=0;fillColor=none;top=0;left=0;bottom=0;right=0;fontStyle=1;overflow=hidden;whiteSpace=wrap;html=1;" vertex="1" parent="Dz-Kh3eGNdh8o4RU7KDZ-172">
          <mxGeometry width="30" height="30" as="geometry">
            <mxRectangle width="30" height="30" as="alternateBounds" />
          </mxGeometry>
        </mxCell>
        <mxCell id="Dz-Kh3eGNdh8o4RU7KDZ-174" value="IdSeguindo" style="shape=partialRectangle;connectable=0;fillColor=none;top=0;left=0;bottom=0;right=0;align=left;spacingLeft=6;fontStyle=5;overflow=hidden;whiteSpace=wrap;html=1;" vertex="1" parent="Dz-Kh3eGNdh8o4RU7KDZ-172">
          <mxGeometry x="30" width="150" height="30" as="geometry">
            <mxRectangle width="150" height="30" as="alternateBounds" />
          </mxGeometry>
        </mxCell>
        <mxCell id="Dz-Kh3eGNdh8o4RU7KDZ-175" value="" style="shape=tableRow;horizontal=0;startSize=0;swimlaneHead=0;swimlaneBody=0;fillColor=none;collapsible=0;dropTarget=0;points=[[0,0.5],[1,0.5]];portConstraint=eastwest;top=0;left=0;right=0;bottom=0;" vertex="1" parent="Dz-Kh3eGNdh8o4RU7KDZ-171">
          <mxGeometry y="60" width="180" height="30" as="geometry" />
        </mxCell>
        <mxCell id="Dz-Kh3eGNdh8o4RU7KDZ-176" value="&lt;b&gt;FK&lt;/b&gt;" style="shape=partialRectangle;connectable=0;fillColor=none;top=0;left=0;bottom=0;right=0;editable=1;overflow=hidden;whiteSpace=wrap;html=1;" vertex="1" parent="Dz-Kh3eGNdh8o4RU7KDZ-175">
          <mxGeometry width="30" height="30" as="geometry">
            <mxRectangle width="30" height="30" as="alternateBounds" />
          </mxGeometry>
        </mxCell>
        <mxCell id="Dz-Kh3eGNdh8o4RU7KDZ-177" value="&lt;b&gt;IdUsuario&lt;/b&gt;" style="shape=partialRectangle;connectable=0;fillColor=none;top=0;left=0;bottom=0;right=0;align=left;spacingLeft=6;overflow=hidden;whiteSpace=wrap;html=1;" vertex="1" parent="Dz-Kh3eGNdh8o4RU7KDZ-175">
          <mxGeometry x="30" width="150" height="30" as="geometry">
            <mxRectangle width="150" height="30" as="alternateBounds" />
          </mxGeometry>
        </mxCell>
        <mxCell id="Dz-Kh3eGNdh8o4RU7KDZ-178" value="Seguidor" style="shape=table;startSize=30;container=1;collapsible=1;childLayout=tableLayout;fixedRows=1;rowLines=0;fontStyle=1;align=center;resizeLast=1;html=1;" vertex="1" parent="1">
          <mxGeometry x="760" y="800" width="180" height="90" as="geometry" />
        </mxCell>
        <mxCell id="Dz-Kh3eGNdh8o4RU7KDZ-179" value="" style="shape=tableRow;horizontal=0;startSize=0;swimlaneHead=0;swimlaneBody=0;fillColor=none;collapsible=0;dropTarget=0;points=[[0,0.5],[1,0.5]];portConstraint=eastwest;top=0;left=0;right=0;bottom=1;" vertex="1" parent="Dz-Kh3eGNdh8o4RU7KDZ-178">
          <mxGeometry y="30" width="180" height="30" as="geometry" />
        </mxCell>
        <mxCell id="Dz-Kh3eGNdh8o4RU7KDZ-180" value="PK" style="shape=partialRectangle;connectable=0;fillColor=none;top=0;left=0;bottom=0;right=0;fontStyle=1;overflow=hidden;whiteSpace=wrap;html=1;" vertex="1" parent="Dz-Kh3eGNdh8o4RU7KDZ-179">
          <mxGeometry width="30" height="30" as="geometry">
            <mxRectangle width="30" height="30" as="alternateBounds" />
          </mxGeometry>
        </mxCell>
        <mxCell id="Dz-Kh3eGNdh8o4RU7KDZ-181" value="IdSeguidor" style="shape=partialRectangle;connectable=0;fillColor=none;top=0;left=0;bottom=0;right=0;align=left;spacingLeft=6;fontStyle=5;overflow=hidden;whiteSpace=wrap;html=1;" vertex="1" parent="Dz-Kh3eGNdh8o4RU7KDZ-179">
          <mxGeometry x="30" width="150" height="30" as="geometry">
            <mxRectangle width="150" height="30" as="alternateBounds" />
          </mxGeometry>
        </mxCell>
        <mxCell id="Dz-Kh3eGNdh8o4RU7KDZ-182" value="" style="shape=tableRow;horizontal=0;startSize=0;swimlaneHead=0;swimlaneBody=0;fillColor=none;collapsible=0;dropTarget=0;points=[[0,0.5],[1,0.5]];portConstraint=eastwest;top=0;left=0;right=0;bottom=0;" vertex="1" parent="Dz-Kh3eGNdh8o4RU7KDZ-178">
          <mxGeometry y="60" width="180" height="30" as="geometry" />
        </mxCell>
        <mxCell id="Dz-Kh3eGNdh8o4RU7KDZ-183" value="&lt;b&gt;FK&lt;/b&gt;" style="shape=partialRectangle;connectable=0;fillColor=none;top=0;left=0;bottom=0;right=0;editable=1;overflow=hidden;whiteSpace=wrap;html=1;" vertex="1" parent="Dz-Kh3eGNdh8o4RU7KDZ-182">
          <mxGeometry width="30" height="30" as="geometry">
            <mxRectangle width="30" height="30" as="alternateBounds" />
          </mxGeometry>
        </mxCell>
        <mxCell id="Dz-Kh3eGNdh8o4RU7KDZ-184" value="&lt;b&gt;IdUsuario&lt;/b&gt;" style="shape=partialRectangle;connectable=0;fillColor=none;top=0;left=0;bottom=0;right=0;align=left;spacingLeft=6;overflow=hidden;whiteSpace=wrap;html=1;" vertex="1" parent="Dz-Kh3eGNdh8o4RU7KDZ-182">
          <mxGeometry x="30" width="150" height="30" as="geometry">
            <mxRectangle width="150" height="30" as="alternateBounds" />
          </mxGeometry>
        </mxCell>
        <mxCell id="Dz-Kh3eGNdh8o4RU7KDZ-207" style="edgeStyle=orthogonalEdgeStyle;rounded=0;orthogonalLoop=1;jettySize=auto;html=1;entryX=1.006;entryY=0.147;entryDx=0;entryDy=0;entryPerimeter=0;" edge="1" parent="1" source="Dz-Kh3eGNdh8o4RU7KDZ-204" target="Dz-Kh3eGNdh8o4RU7KDZ-1">
          <mxGeometry relative="1" as="geometry">
            <mxPoint x="870" y="190" as="targetPoint" />
            <Array as="points">
              <mxPoint x="800" y="700" />
              <mxPoint x="800" y="126" />
            </Array>
          </mxGeometry>
        </mxCell>
        <mxCell id="Dz-Kh3eGNdh8o4RU7KDZ-209" value="&lt;span style=&quot;font-size: 15px;&quot;&gt;&amp;nbsp;1&amp;nbsp;&lt;/span&gt;" style="edgeLabel;html=1;align=center;verticalAlign=middle;resizable=0;points=[];" connectable="0" vertex="1" parent="Dz-Kh3eGNdh8o4RU7KDZ-207">
          <mxGeometry x="0.923" relative="1" as="geometry">
            <mxPoint as="offset" />
          </mxGeometry>
        </mxCell>
        <mxCell id="Dz-Kh3eGNdh8o4RU7KDZ-204" value="Tem" style="rhombus;whiteSpace=wrap;html=1;rounded=0;" vertex="1" parent="1">
          <mxGeometry x="530" y="680" width="80" height="40" as="geometry" />
        </mxCell>
        <mxCell id="Dz-Kh3eGNdh8o4RU7KDZ-233" value="" style="edgeStyle=orthogonalEdgeStyle;fontSize=12;html=1;endArrow=ERoneToMany;rounded=0;exitX=0;exitY=0.5;exitDx=0;exitDy=0;entryX=1;entryY=0.5;entryDx=0;entryDy=0;" edge="1" parent="1" source="Dz-Kh3eGNdh8o4RU7KDZ-93" target="Dz-Kh3eGNdh8o4RU7KDZ-80">
          <mxGeometry width="100" height="100" relative="1" as="geometry">
            <mxPoint x="280" y="1130" as="sourcePoint" />
            <mxPoint x="380" y="1030" as="targetPoint" />
            <Array as="points">
              <mxPoint x="400" y="850" />
              <mxPoint x="310" y="850" />
              <mxPoint x="310" y="995" />
            </Array>
          </mxGeometry>
        </mxCell>
        <mxCell id="Dz-Kh3eGNdh8o4RU7KDZ-234" value="" style="edgeStyle=orthogonalEdgeStyle;fontSize=12;html=1;endArrow=ERoneToMany;rounded=0;entryX=0;entryY=0.5;entryDx=0;entryDy=0;exitX=0;exitY=0.5;exitDx=0;exitDy=0;" edge="1" parent="1" source="Dz-Kh3eGNdh8o4RU7KDZ-93" target="Dz-Kh3eGNdh8o4RU7KDZ-124">
          <mxGeometry width="100" height="100" relative="1" as="geometry">
            <mxPoint x="400" y="850" as="sourcePoint" />
            <mxPoint x="230" y="1005" as="targetPoint" />
            <Array as="points">
              <mxPoint x="400" y="850" />
              <mxPoint x="360" y="850" />
              <mxPoint x="360" y="1235" />
            </Array>
          </mxGeometry>
        </mxCell>
        <mxCell id="Dz-Kh3eGNdh8o4RU7KDZ-235" value="" style="edgeStyle=orthogonalEdgeStyle;fontSize=12;html=1;endArrow=ERoneToMany;rounded=0;exitX=1;exitY=0.5;exitDx=0;exitDy=0;" edge="1" parent="1" source="Dz-Kh3eGNdh8o4RU7KDZ-93">
          <mxGeometry width="100" height="100" relative="1" as="geometry">
            <mxPoint x="410" y="855" as="sourcePoint" />
            <mxPoint x="760" y="880" as="targetPoint" />
            <Array as="points">
              <mxPoint x="640" y="845" />
              <mxPoint x="640" y="880" />
              <mxPoint x="760" y="880" />
            </Array>
          </mxGeometry>
        </mxCell>
        <mxCell id="Dz-Kh3eGNdh8o4RU7KDZ-236" value="" style="edgeStyle=orthogonalEdgeStyle;fontSize=12;html=1;endArrow=ERoneToMany;rounded=0;exitX=1;exitY=0.5;exitDx=0;exitDy=0;entryX=0;entryY=0.5;entryDx=0;entryDy=0;" edge="1" parent="1" source="Dz-Kh3eGNdh8o4RU7KDZ-93" target="Dz-Kh3eGNdh8o4RU7KDZ-175">
          <mxGeometry width="100" height="100" relative="1" as="geometry">
            <mxPoint x="590" y="855" as="sourcePoint" />
            <mxPoint x="770" y="890" as="targetPoint" />
            <Array as="points">
              <mxPoint x="640" y="845" />
              <mxPoint x="640" y="1015" />
            </Array>
          </mxGeometry>
        </mxCell>
        <mxCell id="Dz-Kh3eGNdh8o4RU7KDZ-246" value="" style="edgeStyle=orthogonalEdgeStyle;fontSize=12;html=1;endArrow=ERoneToMany;rounded=0;exitX=1;exitY=0.5;exitDx=0;exitDy=0;entryX=0;entryY=0.5;entryDx=0;entryDy=0;" edge="1" parent="1" source="Dz-Kh3eGNdh8o4RU7KDZ-64" target="Dz-Kh3eGNdh8o4RU7KDZ-230">
          <mxGeometry width="100" height="100" relative="1" as="geometry">
            <mxPoint x="410" y="855" as="sourcePoint" />
            <mxPoint x="230" y="1005" as="targetPoint" />
            <Array as="points">
              <mxPoint x="220" y="840" />
              <mxPoint x="330" y="840" />
              <mxPoint x="330" y="1265" />
            </Array>
          </mxGeometry>
        </mxCell>
        <mxCell id="Dz-Kh3eGNdh8o4RU7KDZ-247" value="" style="edgeStyle=orthogonalEdgeStyle;fontSize=12;html=1;endArrow=ERoneToMany;rounded=0;exitX=1;exitY=0.333;exitDx=0;exitDy=0;entryX=0;entryY=0.5;entryDx=0;entryDy=0;exitPerimeter=0;" edge="1" parent="1" source="Dz-Kh3eGNdh8o4RU7KDZ-64" target="Dz-Kh3eGNdh8o4RU7KDZ-237">
          <mxGeometry width="100" height="100" relative="1" as="geometry">
            <mxPoint x="230" y="855" as="sourcePoint" />
            <mxPoint x="410" y="1275" as="targetPoint" />
            <Array as="points">
              <mxPoint x="340" y="840" />
              <mxPoint x="340" y="1100" />
              <mxPoint x="720" y="1100" />
              <mxPoint x="720" y="1265" />
            </Array>
          </mxGeometry>
        </mxCell>
        <mxCell id="Dz-Kh3eGNdh8o4RU7KDZ-248" value="" style="edgeStyle=orthogonalEdgeStyle;fontSize=12;html=1;endArrow=ERoneToMany;rounded=0;exitX=0;exitY=0.5;exitDx=0;exitDy=0;entryX=0;entryY=0.5;entryDx=0;entryDy=0;" edge="1" parent="1" source="Dz-Kh3eGNdh8o4RU7KDZ-93" target="Dz-Kh3eGNdh8o4RU7KDZ-143">
          <mxGeometry width="100" height="100" relative="1" as="geometry">
            <mxPoint x="230" y="855" as="sourcePoint" />
            <mxPoint x="770" y="1275" as="targetPoint" />
            <Array as="points">
              <mxPoint x="400" y="850" />
              <mxPoint x="380" y="850" />
              <mxPoint x="380" y="1080" />
              <mxPoint x="740" y="1080" />
              <mxPoint x="740" y="1235" />
            </Array>
          </mxGeometry>
        </mxCell>
        <mxCell id="Dz-Kh3eGNdh8o4RU7KDZ-249" value="" style="edgeStyle=orthogonalEdgeStyle;fontSize=12;html=1;endArrow=ERoneToMany;rounded=0;exitX=1;exitY=0.5;exitDx=0;exitDy=0;entryX=0;entryY=0.5;entryDx=0;entryDy=0;" edge="1" parent="1" target="Dz-Kh3eGNdh8o4RU7KDZ-240">
          <mxGeometry width="100" height="100" relative="1" as="geometry">
            <mxPoint x="220" y="1215" as="sourcePoint" />
            <mxPoint x="400" y="1635" as="targetPoint" />
            <Array as="points">
              <mxPoint x="220" y="1200" />
              <mxPoint x="310" y="1200" />
              <mxPoint x="310" y="1295" />
            </Array>
          </mxGeometry>
        </mxCell>
        <mxCell id="Dz-Kh3eGNdh8o4RU7KDZ-250" value="" style="edgeStyle=orthogonalEdgeStyle;fontSize=12;html=1;endArrow=ERoneToMany;rounded=0;entryX=0;entryY=0.5;entryDx=0;entryDy=0;" edge="1" parent="1">
          <mxGeometry width="100" height="100" relative="1" as="geometry">
            <mxPoint x="220" y="1200" as="sourcePoint" />
            <mxPoint x="410" y="1305" as="targetPoint" />
            <Array as="points">
              <mxPoint x="310" y="1200" />
              <mxPoint x="310" y="1305" />
            </Array>
          </mxGeometry>
        </mxCell>
        <mxCell id="Dz-Kh3eGNdh8o4RU7KDZ-251" value="" style="edgeStyle=orthogonalEdgeStyle;fontSize=12;html=1;endArrow=ERoneToMany;rounded=0;entryX=0;entryY=0.5;entryDx=0;entryDy=0;" edge="1" parent="1" target="Dz-Kh3eGNdh8o4RU7KDZ-243">
          <mxGeometry width="100" height="100" relative="1" as="geometry">
            <mxPoint x="220" y="1200" as="sourcePoint" />
            <mxPoint x="410" y="1305" as="targetPoint" />
            <Array as="points">
              <mxPoint x="310" y="1200" />
              <mxPoint x="310" y="1330" />
              <mxPoint x="720" y="1330" />
              <mxPoint x="720" y="1295" />
            </Array>
          </mxGeometry>
        </mxCell>
      </root>
    </mxGraphModel>
  </diagram>
</mxfile>
